<?xml version="1.0" encoding="utf-8"?>
<!-- Generator: Adobe Illustrator 25.0.0, SVG Export Plug-In . SVG Version: 6.00 Build 0)  -->
<svg version="1.1" id="Layer_1" xmlns="http://www.w3.org/2000/svg" xmlns:xlink="http://www.w3.org/1999/xlink" x="0px" y="0px"
	 viewBox="0 0 85.6 85.2" style="enable-background:new 0 0 85.6 85.2;" xml:space="preserve">
<g>
	<path d="M75.4,5.2c2.7,0,4.9,2.2,4.9,4.9v65.3c0,2.7-2.2,4.9-4.9,4.9H10.1c-2.7,0-4.9-2.2-4.9-4.9V10.1c0-2.7,2.2-4.9,4.9-4.9
		L75.4,5.2 M75.4,2.7H10.1c-4,0-7.3,3.3-7.3,7.3v65.3c0,4,3.3,7.3,7.3,7.3h65.3c4,0,7.3-3.3,7.3-7.3V10.1C82.8,6,79.5,2.7,75.4,2.7
		L75.4,2.7z"/>
	<path d="M45.6,22.2c-0.3,0-0.6,0.1-0.9,0.4c-0.5,0.5-0.5,1.2,0,1.7l13.6,13.6H43.9h-2.3H27.7l13.6-13.6c0.5-0.5,0.5-1.2,0-1.7
		c-0.2-0.2-0.5-0.4-0.9-0.4c-0.3,0-0.6,0.1-0.9,0.4L24.3,37.9h-4.8c-1.5,0-2.5,1-2.3,2.3l4.3,20.7c0.3,1.3,1.7,2.3,3.2,2.3h11.5
		h12.9h11.5c1.5,0,3-1,3.2-2.3l4.3-20.7c0.3-1.3-0.7-2.3-2.3-2.3h-4.2L46.5,22.6C46.2,22.4,45.9,22.2,45.6,22.2L45.6,22.2z M56,45.3
		v-5h9.8l-1,5c0,0-0.1,0-0.1,0L56,45.3L56,45.3z M44,45.3v-5h9.6v5H44L44,45.3z M32,45.3v-5h9.6v5H32L32,45.3z M20.8,45.3l-1-5h9.8
		v5H21C20.9,45.3,20.9,45.3,20.8,45.3L20.8,45.3z M56,53.9v-6.1h8.2l-1.3,6.1L56,53.9L56,53.9z M44,53.9v-6.1h9.6v6.1h-8.9L44,53.9
		L44,53.9z M32,53.9v-6.1h9.6v6.1L32,53.9L32,53.9z M22.6,53.9l-1.3-6.1h8.2v6.1L22.6,53.9L22.6,53.9z M56,60.8v-4.5h6.4l-0.8,4.1
		c-0.1,0.1-0.4,0.4-0.8,0.4L56,60.8L56,60.8z M44,60.8v-4.5h0.7h8.9v4.5h-4.4H44L44,60.8z M32,60.8v-4.5h9.6v4.5h-5.2H32L32,60.8z
		 M24.8,60.8c-0.4,0-0.8-0.3-0.8-0.4l-0.9-4.1h6.4v4.5H24.8L24.8,60.8z"/>
</g>
</svg>
