<?xml version="1.0" encoding="utf-8"?>
<!-- Generator: Adobe Illustrator 25.0.0, SVG Export Plug-In . SVG Version: 6.00 Build 0)  -->
<svg version="1.1" id="Layer_1" xmlns="http://www.w3.org/2000/svg" xmlns:xlink="http://www.w3.org/1999/xlink" x="0px" y="0px"
	 viewBox="0 0 89.3 86.5" style="enable-background:new 0 0 89.3 86.5;" xml:space="preserve">
<g>
	<path d="M77.3,6.1c2.7,0,4.9,2.2,4.9,4.9v65.3c0,2.7-2.2,4.9-4.9,4.9H12c-2.7,0-4.9-2.2-4.9-4.9V11c0-2.7,2.2-4.9,4.9-4.9H77.3
		 M77.3,3.7H12c-4,0-7.3,3.3-7.3,7.3v65.3c0,4,3.3,7.3,7.3,7.3h65.3c4,0,7.3-3.3,7.3-7.3V11C84.6,7,81.3,3.7,77.3,3.7L77.3,3.7z"/>
	<path d="M68.4,30.9c0,0.8-0.6,1.4-1.4,1.4H22c-0.8,0-1.4-0.6-1.4-1.4l0,0c0-0.8,0.6-1.4,1.4-1.4h45C67.8,29.5,68.4,30.1,68.4,30.9
		L68.4,30.9z"/>
	<path d="M68.7,43.7c0,0.8-0.6,1.4-1.4,1.4h-45c-0.8,0-1.4-0.6-1.4-1.4l0,0c0-0.8,0.6-1.4,1.4-1.4h45C68,42.3,68.7,42.9,68.7,43.7
		L68.7,43.7z"/>
	<path d="M68.7,56.5c0,0.8-0.6,1.4-1.4,1.4h-45c-0.8,0-1.4-0.6-1.4-1.4l0,0c0-0.8,0.6-1.4,1.4-1.4h45C68,55.1,68.7,55.7,68.7,56.5
		L68.7,56.5z"/>
</g>
</svg>
